# xmcd
#
# Track frame offsets:
#	150
#	27415
#	49630
#	75162
#	100446
#	123788
#	137362
#	165576
#	186401
#	214871
#	234800
#
# Disc length: 3401 seconds
#
# Revision: 1
# Processed by: cddbd v1.4PL0 Copyright (c) Steve Scherf et al.
# Submitted via: CDmax 1.9
#
DISCID=820d470b
DTITLE=Enrico Pieranunzi - Don't Forget The Poet
DYEAR=1999
DGENRE=Jazz
TTITLE0=Persona
TTITLE1=Don't Forget The Poet
TTITLE2=Child Of The Real And Ideal
TTITLE3=Coralie
TTITLE4=Tune's Passage
TTITLE5=Newsbreak
TTITLE6=A Nameless Gate
TTITLE7=With My Heart in A Song
TTITLE8=It Speaks For Itself
TTITLE9=Hindsight
TTITLE10=Seaward
EXTD=YEAR: 1999
EXTT0=
EXTT1=
EXTT2=
EXTT3=
EXTT4=
EXTT5=
EXTT6=
EXTT7=
EXTT8=
EXTT9=
EXTT10=
PLAYORDER=
